<svg xmlns="http://www.w3.org/2000/svg" width="93" height="32" fill="none" viewBox="0 0 93 32">
  <path fill="#595653" d="M21.316 29.944h-.563l-.003-.018-.016-.069a5.09 5.09 0 0 0-.032-.134l-.015-.063a9.523 9.523 0 0 0-.045-.177l-.005-.016a8.111 8.111 0 0 0-.055-.19l-.018-.062-.04-.129-.023-.07a6.495 6.495 0 0 0-.043-.124l-.022-.065a7.031 7.031 0 0 0-.057-.154l-.012-.032a7.571 7.571 0 0 0-.072-.18l-.027-.064-.05-.117-.032-.072a7.38 7.38 0 0 0-.084-.183c-.02-.043-.039-.085-.061-.128l-.025-.049a6.16 6.16 0 0 0-.086-.166l-.04-.07-.055-.101-.043-.075-.055-.094a2.274 2.274 0 0 0-.045-.075c-.02-.034-.04-.068-.062-.101l-.056-.092-.082-.125a5.298 5.298 0 0 0-.052-.078l-.056-.083a1.35 1.35 0 0 1-.057-.082.983.983 0 0 0-.055-.074c-.019-.024-.04-.055-.06-.083l-.055-.075c-.04-.05-.076-.1-.115-.15l-.054-.068-.07-.085-.052-.063a2.063 2.063 0 0 0-.073-.086l-.051-.06-.077-.086-.045-.05a9.498 9.498 0 0 0-.29-.306l-.044-.044-.09-.088-.045-.043a7.278 7.278 0 0 0-.095-.09l-.033-.03a8.237 8.237 0 0 0-.343-.3l-.032-.026a7.135 7.135 0 0 0-.11-.088l-.036-.03c-.04-.03-.075-.06-.113-.089l-.02-.014a9.262 9.262 0 0 0-.395-.288l-.018-.013a9.713 9.713 0 0 0-.127-.085l-.028-.018c-.044-.03-.087-.057-.131-.085l-.008-.005a9.483 9.483 0 0 0-.444-.265l-.006-.003a11.842 11.842 0 0 0-.143-.078l-.021-.012a9.62 9.62 0 0 0-.783-.374l-.017-.007a9.163 9.163 0 0 0-.213-.087h1.413c.23 0 .416-.251.416-.562 0-.31-.186-.56-.416-.56h-.421l.086-.215c.398-.235 1.098-.736 1.793-1.656l.005-.007a4.84 4.84 0 0 0 .155-.213l.01-.015c.051-.072.102-.147.151-.225l.014-.02.07-.113s0-.002.004-.004l.072-.119.016-.026.061-.105.012-.02.07-.123.015-.028a6.403 6.403 0 0 0 .139-.263l.015-.03.052-.107.02-.038.063-.134.013-.029.05-.112.021-.045a7.044 7.044 0 0 0 .121-.291l.02-.05.048-.124.012-.031.055-.15.019-.053.042-.12.015-.045a12.614 12.614 0 0 0 .068-.212l.04-.123c.005-.018.01-.038.016-.054a9.077 9.077 0 0 0 .097-.349l.016-.06c.014-.057.03-.115.043-.174l.012-.049.033-.141.014-.064a12.913 12.913 0 0 0 .079-.383l.013-.066.03-.168.006-.036.032-.199a16.55 16.55 0 0 0 .034-.232l.008-.05.027-.21.008-.066a8.25 8.25 0 0 0 .026-.228l.02-.22c0-.02.004-.04.006-.062l.015-.178c0-.022.003-.044.005-.066l.015-.23c0-.018 0-.038.003-.054l.01-.194c0-.024 0-.047.003-.07l.009-.244v-.035l.004-.22v-.67c0-.075-.003-.153-.005-.231v-.043c-.002-.09-.006-.18-.01-.271L19.94 12a17.182 17.182 0 0 0-.012-.232c0-.019 0-.037-.003-.058a29.902 29.902 0 0 0-.018-.283l-.005-.066-.018-.24c0-.023-.004-.046-.006-.069a27.538 27.538 0 0 0-.027-.295c0-.018-.003-.037-.005-.056l-.027-.255a23.313 23.313 0 0 0-.044-.385c0-.012-.003-.025-.005-.037a22.797 22.797 0 0 0-.036-.28l-.011-.083-.046-.322C18.098-1.316 6.91.414 6.91.414l.358 2.29L.5 9.48l.296 2.617 2.563 1.497c.114-.276.261-.538.438-.782C5.45 11.004 8.659 9.584 9.578 9.29c.184-.059.289-.088.289-.088-4.394 5.391-3.895 11.568-3.699 13.04-.203.037-.361.27-.361.555 0 .31.187.561.417.561h1.413c-2.35.933-4.215 2.709-5.189 4.94a2.614 2.614 0 0 0-.31.836l-.02.065-.037.121-.021.075a4.219 4.219 0 0 0-.054.2c-.01.037-.02.074-.028.111-.01.038-.018.075-.027.115l-.03.13H1.36a.853.853 0 0 0-.587.22.77.77 0 0 0-.181.252.737.737 0 0 0 .18.85.821.821 0 0 0 .588.22h19.964a.853.853 0 0 0 .587-.22.772.772 0 0 0 .181-.252.737.737 0 0 0-.18-.85.853.853 0 0 0-.587-.22l-.008-.007Zm23.387 0h-.562c0-.006-.003-.012-.004-.018l-.016-.069a5.09 5.09 0 0 0-.031-.134l-.015-.063a9.523 9.523 0 0 0-.046-.177l-.005-.016a8.111 8.111 0 0 0-.054-.19l-.02-.062-.039-.129-.023-.07a6.495 6.495 0 0 0-.042-.124l-.023-.065a7.031 7.031 0 0 0-.057-.154l-.012-.032a7.571 7.571 0 0 0-.098-.244 3.164 3.164 0 0 1-.05-.117l-.033-.072a7.38 7.38 0 0 0-.083-.183 3.746 3.746 0 0 0-.062-.128c-.009-.016-.016-.032-.024-.049a6.16 6.16 0 0 0-.086-.166l-.04-.07-.056-.101-.043-.075-.055-.094a2.274 2.274 0 0 0-.044-.075c-.021-.034-.04-.068-.062-.101l-.057-.092-.082-.125a5.298 5.298 0 0 0-.052-.078l-.056-.083a1.35 1.35 0 0 1-.057-.082.983.983 0 0 0-.055-.074l-.06-.083-.055-.075c-.04-.05-.076-.1-.115-.15l-.054-.068-.07-.085-.052-.063a2.063 2.063 0 0 0-.073-.086l-.051-.06-.077-.086-.045-.05a9.388 9.388 0 0 0-.29-.306l-.044-.044-.09-.088-.045-.043a6.692 6.692 0 0 0-.095-.09l-.033-.03a8.173 8.173 0 0 0-.343-.3l-.032-.026a7.135 7.135 0 0 0-.11-.088l-.035-.03-.114-.089-.02-.014c-.129-.1-.26-.195-.394-.288l-.019-.013a9.083 9.083 0 0 0-.127-.085l-.028-.018c-.043-.03-.087-.057-.131-.085l-.008-.005a9.483 9.483 0 0 0-.444-.265l-.006-.003a11.842 11.842 0 0 0-.143-.078l-.02-.012a9.62 9.62 0 0 0-.784-.374l-.017-.007a9.163 9.163 0 0 0-.213-.087h1.413c.23 0 .416-.251.416-.562 0-.31-.186-.56-.416-.56h-.421l.086-.215c.398-.235 1.098-.736 1.793-1.656l.005-.007c.053-.069.105-.14.156-.213l.01-.015a6.3 6.3 0 0 0 .15-.225l.014-.02.071-.113s0-.002.003-.004l.073-.119.015-.026.062-.105.01-.02c.024-.04.047-.081.07-.123l.016-.028a6.403 6.403 0 0 0 .139-.263l.015-.03.053-.107.019-.038.063-.134.013-.029.051-.112.02-.045a6.476 6.476 0 0 0 .121-.291l.02-.05.048-.124.012-.031.055-.15.019-.053.042-.12.015-.045a12.614 12.614 0 0 0 .069-.212l.039-.123c.005-.018.01-.038.016-.054l.047-.165.015-.054.035-.13.016-.06.044-.174.011-.049.033-.141.014-.064.04-.184a9.673 9.673 0 0 0 .04-.2l.012-.065.03-.168.006-.036.033-.199.01-.068.024-.164.007-.05c.01-.07.019-.139.027-.21l.008-.066a8.25 8.25 0 0 0 .026-.228l.021-.22c0-.02.004-.04.005-.062l.015-.178c0-.022.003-.044.005-.066l.015-.23c0-.018 0-.038.003-.054l.01-.194c0-.024 0-.047.003-.07.003-.081.007-.162.009-.244v-.035l.005-.22v-.67c0-.075-.004-.153-.005-.231v-.043l-.01-.271c0-.024-.003-.048-.004-.072a17.182 17.182 0 0 0-.011-.232c0-.019 0-.037-.004-.058a26.905 26.905 0 0 0-.018-.283l-.005-.066-.018-.24c0-.023-.004-.046-.005-.069a27.538 27.538 0 0 0-.027-.295c0-.018-.004-.037-.006-.056l-.026-.255a23.313 23.313 0 0 0-.044-.385c0-.012-.004-.025-.006-.037a22.797 22.797 0 0 0-.036-.28l-.011-.083-.045-.322C41.485-1.316 30.296.414 30.296.414l.358 2.29-6.767 6.777.296 2.617 2.563 1.497c.115-.276.261-.538.438-.782 1.654-1.809 4.863-3.229 5.781-3.523.184-.059.289-.088.289-.088-4.394 5.391-3.894 11.568-3.699 13.04-.203.037-.36.27-.36.555 0 .31.186.561.416.561h1.413c-2.35.933-4.215 2.709-5.188 4.94a7.418 7.418 0 0 0-.31.836l-.02.065a2.42 2.42 0 0 0-.037.121l-.022.075a4.149 4.149 0 0 0-.054.2c-.01.037-.02.074-.028.111-.01.038-.018.075-.027.115l-.029.13h-.563a.853.853 0 0 0-.587.22.737.737 0 0 0 0 1.103.853.853 0 0 0 .587.22H44.71a.853.853 0 0 0 .587-.221.772.772 0 0 0 .18-.252.737.737 0 0 0-.18-.85.853.853 0 0 0-.587-.22l-.008-.007Zm23.388 0h-.563c0-.006-.002-.012-.004-.018l-.015-.069a5.09 5.09 0 0 0-.032-.134l-.015-.063a9.523 9.523 0 0 0-.045-.177l-.005-.016a8.111 8.111 0 0 0-.055-.19l-.019-.062-.039-.129-.023-.07a6.495 6.495 0 0 0-.043-.124l-.023-.065a7.031 7.031 0 0 0-.056-.154l-.013-.032a7.571 7.571 0 0 0-.071-.18l-.027-.064-.05-.117-.032-.072a7.38 7.38 0 0 0-.084-.183 3.746 3.746 0 0 0-.062-.128l-.024-.049a6.16 6.16 0 0 0-.086-.166l-.04-.07-.055-.101-.043-.075-.055-.094a2.274 2.274 0 0 0-.045-.075c-.02-.034-.04-.068-.062-.101l-.057-.092-.08-.125a5.298 5.298 0 0 0-.053-.078l-.056-.083a1.35 1.35 0 0 1-.057-.082.983.983 0 0 0-.055-.074c-.019-.024-.04-.055-.06-.083l-.055-.075c-.04-.05-.076-.1-.115-.15l-.054-.068-.07-.085-.052-.063c-.024-.03-.049-.058-.073-.086l-.051-.06-.077-.086-.045-.05a9.498 9.498 0 0 0-.29-.306l-.044-.044-.09-.088-.045-.043a6.692 6.692 0 0 0-.095-.09l-.033-.03a8.237 8.237 0 0 0-.344-.3l-.032-.026a7.135 7.135 0 0 0-.108-.088l-.037-.03c-.04-.03-.075-.06-.114-.089l-.019-.014a9.262 9.262 0 0 0-.395-.288l-.018-.013a9.713 9.713 0 0 0-.127-.085l-.028-.018c-.044-.03-.088-.057-.131-.085l-.008-.005a9.483 9.483 0 0 0-.444-.265l-.006-.003a5.037 5.037 0 0 0-.143-.078l-.021-.012a9.62 9.62 0 0 0-.783-.374l-.017-.007a9.163 9.163 0 0 0-.213-.087h1.412c.23 0 .417-.251.417-.562 0-.31-.187-.56-.417-.56h-.42l.086-.215c.398-.235 1.098-.736 1.793-1.656l.005-.007c.053-.069.104-.14.155-.213l.01-.015c.051-.072.102-.147.151-.225l.014-.02.07-.113s0-.002.004-.004l.072-.119.016-.026.061-.105.012-.02.07-.123.015-.028a6.403 6.403 0 0 0 .138-.263l.016-.03.052-.107.02-.038.062-.134.014-.029.05-.112.02-.045a6.476 6.476 0 0 0 .122-.291l.02-.05.048-.124.012-.031.055-.15.019-.053.041-.12.015-.045a12.614 12.614 0 0 0 .07-.212l.039-.123c.005-.018.01-.038.016-.054l.047-.165.015-.054.035-.13.016-.06.043-.174.012-.049.033-.141.014-.064a12.913 12.913 0 0 0 .079-.383l.013-.066.03-.168.006-.036.032-.199.01-.068.025-.164.007-.05.027-.21.008-.066a8.25 8.25 0 0 0 .025-.228l.022-.22c0-.02.003-.04.005-.062l.015-.178c0-.022.003-.044.005-.066l.015-.23c0-.018 0-.038.003-.054l.01-.194c0-.024 0-.047.003-.07l.009-.244v-.035l.004-.22v-.67c0-.075-.003-.153-.005-.231v-.043l-.01-.271-.003-.072a17.182 17.182 0 0 0-.012-.232c0-.019 0-.037-.003-.058a26.905 26.905 0 0 0-.018-.283l-.005-.066-.018-.24c0-.023-.004-.046-.006-.069a27.538 27.538 0 0 0-.027-.295c0-.018-.004-.037-.005-.056l-.027-.255a23.313 23.313 0 0 0-.044-.385c0-.012-.003-.025-.005-.037a22.797 22.797 0 0 0-.036-.28l-.011-.083-.046-.322C64.873-1.316 53.684.414 53.684.414l.358 2.29-6.767 6.777.296 2.617 2.563 1.497c.114-.276.261-.538.438-.782 1.653-1.809 4.862-3.229 5.781-3.523.184-.059.288-.088.288-.088-4.393 5.391-3.894 11.568-3.698 13.04-.204.037-.361.27-.361.555 0 .31.187.561.417.561h1.413c-2.35.933-4.215 2.709-5.189 4.94a7.418 7.418 0 0 0-.31.836l-.02.065-.037.121-.021.075a3.834 3.834 0 0 0-.054.2l-.029.111-.026.115-.03.13h-.563a.853.853 0 0 0-.586.22.773.773 0 0 0-.181.252.737.737 0 0 0 .18.85.822.822 0 0 0 .587.22h19.965a.853.853 0 0 0 .587-.22.772.772 0 0 0 .181-.252.737.737 0 0 0-.18-.85.853.853 0 0 0-.587-.22l-.008-.007Zm23.387 0h-.563l-.003-.018-.016-.069-.031-.134-.015-.063a9.523 9.523 0 0 0-.046-.177l-.005-.016a8.111 8.111 0 0 0-.054-.19l-.02-.062-.039-.129-.023-.07a6.495 6.495 0 0 0-.042-.124l-.023-.065a7.031 7.031 0 0 0-.057-.154l-.012-.032a7.571 7.571 0 0 0-.099-.244l-.05-.117-.032-.072a7.38 7.38 0 0 0-.083-.183 3.746 3.746 0 0 0-.062-.128l-.025-.049a6.16 6.16 0 0 0-.085-.166l-.04-.07-.056-.101-.043-.075a9.185 9.185 0 0 0-.1-.17c-.02-.033-.039-.067-.061-.1l-.057-.092-.082-.125a5.298 5.298 0 0 0-.052-.078l-.056-.083a1.35 1.35 0 0 1-.057-.082.983.983 0 0 0-.055-.074c-.019-.024-.04-.055-.06-.083l-.055-.075c-.04-.05-.076-.1-.115-.15l-.054-.068-.07-.085-.052-.063a2.063 2.063 0 0 0-.073-.086l-.051-.06-.077-.086-.045-.05a9.388 9.388 0 0 0-.29-.306l-.044-.044-.09-.088-.045-.043a6.692 6.692 0 0 0-.095-.09l-.033-.03a8.173 8.173 0 0 0-.343-.3l-.032-.026a7.135 7.135 0 0 0-.11-.088l-.036-.03c-.04-.03-.075-.06-.113-.089l-.02-.014a10.344 10.344 0 0 0-.394-.288l-.019-.013a9.083 9.083 0 0 0-.127-.085l-.028-.018c-.043-.03-.087-.057-.131-.085l-.008-.005a9.483 9.483 0 0 0-.444-.265l-.006-.003a11.842 11.842 0 0 0-.143-.078l-.02-.012a9.62 9.62 0 0 0-.784-.374l-.017-.007a9.163 9.163 0 0 0-.213-.087h1.413c.23 0 .416-.251.416-.562 0-.31-.186-.56-.416-.56h-.421l.086-.215c.398-.235 1.098-.736 1.793-1.656l.005-.007c.053-.069.105-.14.156-.213l.01-.015a6.3 6.3 0 0 0 .15-.225l.014-.02.071-.113s0-.002.003-.004l.072-.119.016-.026.061-.105.012-.02.07-.123.015-.028a6.403 6.403 0 0 0 .139-.263l.015-.03.053-.107.018-.038.064-.134.013-.029.051-.112.02-.045a6.476 6.476 0 0 0 .121-.291l.02-.05.048-.124.012-.031.055-.15.019-.053.042-.12.015-.045a11.15 11.15 0 0 0 .068-.212l.04-.123c.005-.018.01-.038.016-.054l.047-.165.015-.054.035-.13.016-.06c.015-.057.03-.115.043-.174l.012-.049.033-.141.014-.064a12.913 12.913 0 0 0 .08-.383l.012-.066.03-.168.006-.036.032-.199a16.55 16.55 0 0 0 .034-.232l.008-.05c.01-.07.019-.139.027-.21l.008-.066a8.25 8.25 0 0 0 .026-.228l.021-.22c0-.02.004-.04.005-.062l.015-.178c0-.022.003-.044.005-.066a23.271 23.271 0 0 0 .028-.478c0-.024 0-.047.003-.07l.009-.244v-.035l.005-.22v-.67c0-.075-.004-.153-.006-.231v-.043a33.15 33.15 0 0 0-.01-.271L90.103 12a17.182 17.182 0 0 0-.011-.232c0-.019 0-.037-.004-.058a26.905 26.905 0 0 0-.018-.283l-.005-.066-.018-.24c0-.023-.004-.046-.006-.069a27.538 27.538 0 0 0-.027-.295c0-.018-.003-.037-.005-.056l-.026-.255a23.313 23.313 0 0 0-.044-.385c0-.012-.004-.025-.006-.037a22.797 22.797 0 0 0-.036-.28l-.011-.083-.046-.322C88.26-1.316 77.071.414 77.071.414l.358 2.29-6.767 6.777.296 2.617 2.563 1.497c.115-.276.261-.538.438-.782 1.654-1.809 4.863-3.229 5.781-3.523.184-.059.289-.088.289-.088-4.394 5.391-3.894 11.568-3.699 13.04-.203.037-.36.27-.36.555 0 .31.186.561.416.561h1.413c-2.35.933-4.215 2.709-5.188 4.94a8.208 8.208 0 0 0-.31.836l-.02.065-.038.121-.02.075a4.149 4.149 0 0 0-.055.2c-.01.037-.02.074-.028.111-.01.038-.018.075-.027.115l-.029.13h-.563a.853.853 0 0 0-.587.22.737.737 0 0 0 0 1.103.853.853 0 0 0 .587.22h19.965a.853.853 0 0 0 .586-.221.772.772 0 0 0 .181-.252.737.737 0 0 0-.18-.85.853.853 0 0 0-.587-.22l-.008-.007Z"/>
</svg>
